<svg width="50" height="50" viewBox="0 0 60 60" xmlns="http://www.w3.org/2000/svg" id="icon"><path d="M24.896 31.33a.81.81 0 0 0 .805.805.81.81 0 0 0 .807-.806 3.233 3.233 0 0 1 3.224-3.225.81.81 0 0 0 .807-.806.81.81 0 0 0-.806-.807 4.85 4.85 0 0 0-4.834 4.836zm13.7-4.03a.81.81 0 0 0 .807.805h4.03a.81.81 0 0 0 .806-.806v-1.613a.81.81 0 0 0-.807-.806h-4.03a.81.81 0 0 0-.806.807V27.3zm-8.865 10.476a6.306 6.306 0 0 1-2.295-.442l-1.17 1.248c1.048.483 2.218.806 3.466.806 4.434 0 8.06-3.627 8.06-8.06 0-1.41-.362-2.74-1.006-3.907l-1.17 1.25a6.55 6.55 0 0 1 .565 2.66c0 3.546-2.9 6.446-6.45 6.446zm15.315-16.12h-2.9L40.61 23.27h4.433a.81.81 0 0 1 .806.805v16.12a.81.81 0 0 1-.805.805H24.01l-1.532 1.612h22.567a2.424 2.424 0 0 0 2.418-2.418v-16.12a2.424 2.424 0 0 0-2.418-2.417zm-1.853-4.633a.78.78 0 0 0-1.13.04l-4.31 4.594h-.324l-1.734-2.86a2.4 2.4 0 0 0-2.055-1.17h-7.817c-.846 0-1.652.443-2.055 1.17l-1.733 2.86h-7.617A2.424 2.424 0 0 0 12 24.075v16.12a2.424 2.424 0 0 0 2.418 2.417h3.667l-.242.24a.78.78 0 0 0 .04 1.13c.162.163.363.242.565.242.2 0 .443-.08.604-.24l24.18-25.792a.87.87 0 0 0-.04-1.17zM14.418 41a.81.81 0 0 1-.806-.806v-16.12a.81.81 0 0 1 .806-.805h8.06c.28 0 .564-.163.684-.404l1.935-3.264c.162-.24.403-.403.684-.403h7.86c.28 0 .564.16.684.402l1.935 3.264c.04.08.08.122.16.162l-1.773 1.893c-1.368-1.007-3.062-1.65-4.916-1.65-4.43 0-8.058 3.626-8.058 8.06 0 2.053.766 3.907 2.015 5.317L19.617 41h-5.2zM0 0h60v60H0V0z" fill="#ECECEC" fill-rule="evenodd"/></svg>